<svg id="Capa_1" data-name="Capa 1" xmlns="http://www.w3.org/2000/svg" viewBox="0 0 841.89 284.94"><defs><style>.cls-1{fill:#2f3ab6;stroke:#2f3ab6;stroke-miterlimit:10;}.cls-2{font-size:28.5px;font-family:BookmanOldStyle-Bold, Bookman Old Style;}.cls-2,.cls-5{font-weight:700;}.cls-3{font-size:35.64px;font-family:BookmanOldStyle-BoldItalic, Bookman Old Style;font-style:italic;}.cls-4{fill:#fff;}.cls-5{font-size:36px;font-family:Arial-BoldMT, Arial;}.cls-6{letter-spacing:-0.02em;}</style></defs><path class="cls-1" d="M756.57,218.6S691.09,140.92,580.4,94.87c-75.23-31.3-154-26.15-184.76-25.65-29.26.48-52.75,4.11-59.42,4.86C151,95,59.55,269.13,59.55,269.13s79.67-76.36,198.58-133.35c54.15-25.95,184.41-38.9,292.56-17.06C685,145.84,756.57,218.6,756.57,218.6Z"/><text class="cls-2" transform="translate(730.25 157.93) scale(0.98 1)">Inc.<tspan class="cls-3" x="57" y="0"> </tspan></text><path class="cls-4" d="M147.3,164a5.66,5.66,0,0,1-5.67-5.66V147.74a5.67,5.67,0,0,1,5.67-5.67h2.47l1,0V98H147.3a5.67,5.67,0,0,1-5.67-5.67V81.68A5.67,5.67,0,0,1,147.3,76h62.8a5.67,5.67,0,0,1,5.35,3.79l8.6,24.46a5.66,5.66,0,0,1-3.46,7.23L210.74,115a5.68,5.68,0,0,1-7.06-3c-.44-1-.85-1.84-1.24-2.6v28.09a5.67,5.67,0,0,1-5.67,5.67h-9.18a5.65,5.65,0,0,1,2.45,4.66v10.61a5.66,5.66,0,0,1-5.67,5.66Zm34-21.94h2.49a5.64,5.64,0,0,1-2.44-4.66v-4.95c0-.48,0-.81,0-1l-.6,0s0,10.58,0,10.66Zm-.59-33.23.56-.08a13.11,13.11,0,0,0,.08-1.58v-4.06a5.63,5.63,0,0,1,1-3.24h-1.65Z"/><path d="M147.3,81.68h62.8l8.61,24.46-9.85,3.46a38.66,38.66,0,0,0-4.58-8A19.33,19.33,0,0,0,199.11,97a18.36,18.36,0,0,0-6.47-2.42,58.61,58.61,0,0,0-8.27-.39H175v20.34h4.79a9.22,9.22,0,0,0,4.28-.83,5.14,5.14,0,0,0,2.23-2.14,10.37,10.37,0,0,0,.68-4.4v-4.06h9.79v34.29H187v-4.95a9.49,9.49,0,0,0-.38-3.13,5.59,5.59,0,0,0-1.36-2.14,4.9,4.9,0,0,0-2-1.16,16.56,16.56,0,0,0-4.05-.33H175v16.1a10.49,10.49,0,0,0,.49,3.93,3.14,3.14,0,0,0,1.58,1.51,11.7,11.7,0,0,0,4.19.5h3.11v10.61H147.3V147.74h2.47q4.09,0,5.39-1.07c.86-.72,1.29-2.15,1.29-4.32V98.28a10.47,10.47,0,0,0-.5-4,3.09,3.09,0,0,0-1.64-1.49,13.54,13.54,0,0,0-4.54-.49H147.3Z"/><path class="cls-4" d="M261.07,165.33a42.77,42.77,0,0,1-22.3-6,43.85,43.85,0,0,1-15.89-16.66A47.31,47.31,0,0,1,217,119.55a46.3,46.3,0,0,1,5.74-22.79,42.33,42.33,0,0,1,15.81-16.24,43.51,43.51,0,0,1,22.19-5.83,45.75,45.75,0,0,1,16.76,3,5.68,5.68,0,0,1,4-1.66h7.72a5.67,5.67,0,0,1,5.47,4.19l7.45,27.53a5.67,5.67,0,0,1-3.87,6.93l-10.13,3a5.41,5.41,0,0,1-1.59.23,5.67,5.67,0,0,1-5-3.07c-3.81-7.4-6.63-10.82-8.33-12.39-3.06-2.79-6.2-4.16-9.6-4.16a12.26,12.26,0,0,0-6.8,2.06,14.68,14.68,0,0,0-5.23,6.38,26.29,26.29,0,0,0-2.16,11.12c0,6.71,1.67,12.27,5.1,17,3.05,4.22,6.74,6.18,11.6,6.18a17,17,0,0,0,9.23-2.82,37.41,37.41,0,0,0,11-10.68,5.66,5.66,0,0,1,8.06-1.3l8.44,6.32a5.66,5.66,0,0,1,1.19,7.86c-5.94,8.19-11.33,13.81-16.5,17.19A47.55,47.55,0,0,1,261.07,165.33Z"/><path d="M281.52,81.68h7.72l7.45,27.54-10.12,3q-5.06-9.83-9.52-14-6.21-5.66-13.45-5.66a17.84,17.84,0,0,0-9.87,3,20.26,20.26,0,0,0-7.3,8.74,31.76,31.76,0,0,0-2.69,13.52q0,11.82,6.18,20.33t16.19,8.52A22.78,22.78,0,0,0,278.35,143,42.92,42.92,0,0,0,291,130.7l8.44,6.32q-8.22,11.32-15,15.77a41.79,41.79,0,0,1-23.39,6.87,37,37,0,0,1-19.38-5.19,38,38,0,0,1-13.85-14.53,41.5,41.5,0,0,1-5.16-20.39,40.4,40.4,0,0,1,5-20,36.49,36.49,0,0,1,13.7-14.1A40.36,40.36,0,0,1,279.73,85Z"/><path class="cls-4" d="M380.45,165.33a43.14,43.14,0,0,1-12.78-1.82,40.31,40.31,0,0,1-6.25-2.55,5.65,5.65,0,0,1-5,3h-8.11a5.65,5.65,0,0,1-5.57-4.65l-5.39-29.73a5.65,5.65,0,0,1,4.24-6.52l5.32-1.3-.05,0a26.21,26.21,0,0,1-7.92-18.65,25.82,25.82,0,0,1,4.27-14.33,29.35,29.35,0,0,1,12.39-10.36,40,40,0,0,1,17.31-3.74,38.1,38.1,0,0,1,15.67,3.25A5.65,5.65,0,0,1,392.8,76h7.78a5.67,5.67,0,0,1,5.5,4.28L412.61,106a5.67,5.67,0,0,1-3.94,6.84l-3.76,1.08a27.5,27.5,0,0,1,4.27,3.86,25.91,25.91,0,0,1,6.54,17.46A27.07,27.07,0,0,1,406,156.34C399.05,162.31,390.48,165.33,380.45,165.33Zm-19.08-35.45a30.24,30.24,0,0,0,6.43,7,20.41,20.41,0,0,0,13.14,4.83,13.12,13.12,0,0,0,4.73-.66,3.48,3.48,0,0,0,1.52-1,1.41,1.41,0,0,0,.27-.51c0-.12,0-.46-.89-1.12s-3.27-2-9.38-3.76l-12.72-3.74C363.55,130.67,362.52,130.32,361.37,129.88Zm6.3-30.71a3.14,3.14,0,0,0,.45.49c.28.27,1.66,1.44,6.47,2.8l12.81,3.77a24.61,24.61,0,0,0-5.07-4.68,18.52,18.52,0,0,0-10.5-3.32,7.41,7.41,0,0,0-4.06.87Z"/><path d="M400.58,81.68l6.53,25.72-10.17,2.91q-5.06-9.19-11.47-13.47a24.16,24.16,0,0,0-13.64-4.28,12.46,12.46,0,0,0-7.36,1.93q-2.69,1.92-2.69,4.29a6.84,6.84,0,0,0,2.45,5c1.6,1.54,4.53,2.91,8.82,4.12l14.58,4.29q12.14,3.52,17.31,9.35a20.25,20.25,0,0,1,5.11,13.7,21.54,21.54,0,0,1-7.83,16.82q-8.78,7.59-21.77,7.59a37.5,37.5,0,0,1-11.1-1.56,41.15,41.15,0,0,1-10.56-5.25l-2.4,5.5h-8.11l-5.38-29.74,10.17-2.47a36.13,36.13,0,0,0,11.19,15.14,26.09,26.09,0,0,0,16.68,6.07,18.78,18.78,0,0,0,6.77-1,8.77,8.77,0,0,0,4.06-2.91,6.53,6.53,0,0,0,1.36-3.85,6.94,6.94,0,0,0-3.16-5.66q-3.21-2.35-11.21-4.67l-12.69-3.73a58.23,58.23,0,0,1-7.81-3.1,29.06,29.06,0,0,1-7.56-4.76,19.46,19.46,0,0,1-4.38-6.35,19.68,19.68,0,0,1-1.74-8.16,20.2,20.2,0,0,1,3.35-11.24A23.77,23.77,0,0,1,358,83.55a34.35,34.35,0,0,1,14.88-3.19,32,32,0,0,1,17.8,5.17l2.12-3.85Z"/><path class="cls-4" d="M433.13,164a5.66,5.66,0,0,1-5.67-5.66V147.74a5.67,5.67,0,0,1,5.67-5.67h2.24l1.21,0c0-.37,0-.81,0-1.35v-41a15.54,15.54,0,0,0-4.48,4.43,84.47,84.47,0,0,0-4.2,7.92,5.69,5.69,0,0,1-5.08,3.14,5.58,5.58,0,0,1-1.91-.34l-10-3.57a5.67,5.67,0,0,1-3.44-7.2l9.36-26.88a5.67,5.67,0,0,1,5.35-3.8h7.19A5.66,5.66,0,0,1,434.18,76h34.95a5.69,5.69,0,0,1,4.76-2.58h7.24a5.67,5.67,0,0,1,5.35,3.8l9.41,26.87a5.66,5.66,0,0,1-3.46,7.22l-10.12,3.57a5.64,5.64,0,0,1-6.95-2.8,69.36,69.36,0,0,0-4.38-8,18.23,18.23,0,0,0-4.26-4.32v40.51c0,.69,0,1.25,0,1.72.79,0,1.9,0,3.46,0a5.67,5.67,0,0,1,5.67,5.67v10.61a5.66,5.66,0,0,1-5.67,5.66Z"/><path d="M422.24,79.1h7.19l.76,2.58H473l.92-2.58h7.24L490.54,106l-10.12,3.58a77.93,77.93,0,0,0-4.84-8.74,23.19,23.19,0,0,0-6.64-6.32,10.62,10.62,0,0,0-5.61-1.76,2.14,2.14,0,0,0-1.79.63,5.37,5.37,0,0,0-.49,2.89v44.07a25.52,25.52,0,0,0,.27,4.89,3.13,3.13,0,0,0,.93,1.57,3.64,3.64,0,0,0,1.81.77,54.12,54.12,0,0,0,6.13.19v10.61H433.13V147.74h2.24a14.78,14.78,0,0,0,4.77-.47,3.15,3.15,0,0,0,1.58-1.65,13.81,13.81,0,0,0,.55-4.92V95.64a4.23,4.23,0,0,0-.43-2.42,2.52,2.52,0,0,0-1.85-.49,12.32,12.32,0,0,0-6.32,2.14,21.15,21.15,0,0,0-6.2,6,91.1,91.1,0,0,0-4.63,8.63l-10-3.58Z"/><path class="cls-4" d="M495,164a5.66,5.66,0,0,1-5.67-5.66V147.74a5.67,5.67,0,0,1,5.67-5.67h1.9c.63,0,1.14,0,1.56,0,0-.4,0-.88,0-1.44V98.83c0-.33,0-.62,0-.87H495a5.67,5.67,0,0,1-5.67-5.67V81.68A5.67,5.67,0,0,1,495,76H558.4a5.67,5.67,0,0,1,5.34,3.77L572.4,104a5.67,5.67,0,0,1-3.41,7.24l-9.85,3.57a5.66,5.66,0,0,1-7.15-3.13c-.42-1-.85-1.91-1.3-2.77v24.5a27.49,27.49,0,0,0,4.63-8.8,5.67,5.67,0,0,1,5.39-3.91,5.49,5.49,0,0,1,1.87.32l9.94,3.46a5.66,5.66,0,0,1,3.48,7.23l-10,28.5a5.68,5.68,0,0,1-5.35,3.79Zm39-23.59c.94,0,1.85,0,2.72-.09h-1.42a5.67,5.67,0,0,1-5.67-5.67v-3.31a14.57,14.57,0,0,0-.09-1.8l-1-.06v10.93Zm-5.44-33.07c.41,0,.74,0,1-.07,0-.49.07-1.2.07-2.19v-2.91a5.54,5.54,0,0,1,.62-2.57h-1.69Z"/><path d="M495,81.68H558.4l8.66,24.24-9.85,3.57a32.76,32.76,0,0,0-5.85-9.56,16.28,16.28,0,0,0-7.4-4.81,33.82,33.82,0,0,0-9.44-1.18h-11.6v19.12h3.81a17.45,17.45,0,0,0,5.8-.63,4,4,0,0,0,2.15-2,14.43,14.43,0,0,0,.65-5.36v-2.91H545v32.48h-9.69v-3.31a11.36,11.36,0,0,0-.79-4.92,4.18,4.18,0,0,0-2.15-2.1c-.9-.37-2.92-.55-6-.55h-3.43v17.63a11.4,11.4,0,0,0,.28,3.41,1.85,1.85,0,0,0,1.06.94,10.83,10.83,0,0,0,3.4.33H534a30.89,30.89,0,0,0,12-2.07,23.05,23.05,0,0,0,8.74-6.68,32.8,32.8,0,0,0,5.91-11l9.94,3.47-10,28.5H495V147.74h1.9a15.39,15.39,0,0,0,5.12-.55,3.36,3.36,0,0,0,1.85-1.92,22.21,22.21,0,0,0,.27-4.67V98.83a13.61,13.61,0,0,0-.46-4.45,3.17,3.17,0,0,0-1.45-1.57,9.37,9.37,0,0,0-3.86-.52H495Z"/><path class="cls-4" d="M575.28,164a5.66,5.66,0,0,1-5.67-5.66V147.74a5.67,5.67,0,0,1,5.67-5.67h1.9c.63,0,1.14,0,1.56,0,0-.4,0-.88,0-1.44V98.83c0-.33,0-.62,0-.87h-3.46a5.67,5.67,0,0,1-5.67-5.67V81.68A5.67,5.67,0,0,1,575.28,76h63.39A5.66,5.66,0,0,1,644,79.78L652.67,104a5.67,5.67,0,0,1-3.4,7.24l-9.85,3.57a5.75,5.75,0,0,1-1.94.34,5.66,5.66,0,0,1-5.22-3.47c-.42-1-.85-1.91-1.3-2.77v24.5a27.49,27.49,0,0,0,4.63-8.8,5.67,5.67,0,0,1,5.39-3.91,5.49,5.49,0,0,1,1.87.32l9.94,3.46a5.68,5.68,0,0,1,3.49,7.23l-10,28.5A5.67,5.67,0,0,1,641,164Zm39-23.59c1,0,1.85,0,2.72-.09H615.6a5.66,5.66,0,0,1-5.66-5.67v-3.31a14.11,14.11,0,0,0-.1-1.8l-1-.06v10.93Zm-5.43-33.07c.4,0,.73,0,1-.07,0-.49.08-1.2.08-2.19v-2.91a5.66,5.66,0,0,1,.61-2.57h-1.68Z"/><path d="M575.28,81.68h63.39l8.66,24.24-9.85,3.57a32.76,32.76,0,0,0-5.85-9.56,16.28,16.28,0,0,0-7.4-4.81,33.77,33.77,0,0,0-9.44-1.18H603.2v19.12H607a17.42,17.42,0,0,0,5.79-.63,4,4,0,0,0,2.15-2c.44-.9.65-2.68.65-5.36v-2.91h9.69v32.48H615.6v-3.31a11.54,11.54,0,0,0-.78-4.92,4.25,4.25,0,0,0-2.15-2.1c-.91-.37-2.92-.55-6-.55H603.2v17.63a11.93,11.93,0,0,0,.27,3.41,1.85,1.85,0,0,0,1.06.94,10.87,10.87,0,0,0,3.4.33h6.37a31,31,0,0,0,12-2.07,23.13,23.13,0,0,0,8.74-6.68,33,33,0,0,0,5.9-11l9.94,3.47-10,28.5H575.28V147.74h1.9a15.39,15.39,0,0,0,5.12-.55,3.33,3.33,0,0,0,1.85-1.92,22.21,22.21,0,0,0,.27-4.67V98.83a13.33,13.33,0,0,0-.46-4.45,3.2,3.2,0,0,0-1.44-1.57,9.42,9.42,0,0,0-3.87-.52h-3.37Z"/><path class="cls-4" d="M655.82,164a5.66,5.66,0,0,1-5.67-5.66V147.74a5.67,5.67,0,0,1,5.67-5.67h3.47s0-43.52,0-43.52c0-.22,0-.41,0-.59h-3.47a5.67,5.67,0,0,1-5.67-5.67V81.68A5.67,5.67,0,0,1,655.82,76h37.06a5.67,5.67,0,0,1,5.67,5.67V92.29A5.67,5.67,0,0,1,692.88,98h-3.47v42.55a22.55,22.55,0,0,0,8-1.43,16.1,16.1,0,0,0,5.91-4.62,31.53,31.53,0,0,0,5.12-9.81,5.64,5.64,0,0,1,7.2-3.48l10,3.46a5.68,5.68,0,0,1,3.49,7.25l-10,28.35a5.67,5.67,0,0,1-5.35,3.78Z"/><path d="M655.82,81.68h37.06V92.29h-3.24a12.59,12.59,0,0,0-3.41.27,3.71,3.71,0,0,0-1.9,1.68,8.23,8.23,0,0,0-.59,3.6v43.8a11.67,11.67,0,0,0,.25,3.24,1.85,1.85,0,0,0,1,1,7.94,7.94,0,0,0,2.94.36q7.29,0,11.73-1.92a21.84,21.84,0,0,0,8-6.19,36.9,36.9,0,0,0,6.12-11.56l10,3.46-10,28.36h-58V147.74h3.63a7.25,7.25,0,0,0,3.35-.61,3.7,3.7,0,0,0,1.65-1.62A8.62,8.62,0,0,0,665,142V98.55a11,11,0,0,0-.51-4A3.54,3.54,0,0,0,663,92.84a6.63,6.63,0,0,0-3.16-.55h-4Z"/><text class="cls-5" transform="translate(255.5 218.61)">POO<tspan class="cls-6" x="80.02" y="0">L</tspan><tspan x="101.36" y="0" xml:space="preserve"> REINFORCING</tspan></text></svg>