<svg id="Capa_1" data-name="Capa 1" xmlns="http://www.w3.org/2000/svg" viewBox="0 0 724.14 200.52"><defs><style>.cls-1{fill:#878787;stroke:#878787;stroke-miterlimit:10;}.cls-2{font-size:28.5px;font-family:BookmanOldStyle-Bold, Bookman Old Style;}.cls-2,.cls-5{font-weight:700;}.cls-3{font-size:35.64px;font-family:BookmanOldStyle-BoldItalic, Bookman Old Style;font-style:italic;}.cls-4{fill:#fff;}.cls-5{font-size:36px;font-family:Arial-BoldMT, Arial;}.cls-6{letter-spacing:-0.02em;}</style></defs><path class="cls-1" d="M697,150S631.54,72.32,520.85,26.27C445.62-5,366.81.11,336.09.62c-29.26.48-52.76,4.1-59.43,4.85C91.49,26.37,0,200.52,0,200.52S79.67,124.16,198.57,67.17C252.73,41.22,383,28.28,491.14,50.12,625.44,77.24,697,150,697,150Z"/><text class="cls-2" transform="translate(670.7 89.32) scale(0.98 1)">Inc.<tspan class="cls-3" x="57" y="0"> </tspan></text><path class="cls-4" d="M87.75,95.41a5.67,5.67,0,0,1-5.67-5.67V79.13a5.67,5.67,0,0,1,5.67-5.67h2.46l1,0V29.37l-1,0H87.75a5.67,5.67,0,0,1-5.67-5.67V13.08a5.67,5.67,0,0,1,5.67-5.67h62.8a5.66,5.66,0,0,1,5.34,3.78l8.61,24.46A5.68,5.68,0,0,1,161,42.88l-9.85,3.46a5.59,5.59,0,0,1-1.88.32,5.68,5.68,0,0,1-5.17-3.34c-.44-1-.86-1.85-1.24-2.6V68.8a5.67,5.67,0,0,1-5.67,5.67H128a5.64,5.64,0,0,1,2.44,4.66V89.74a5.67,5.67,0,0,1-5.67,5.67Zm34-22h2.49a5.65,5.65,0,0,1-2.45-4.66V63.85c0-.48,0-.81,0-1l-.6,0V73.46Zm-.59-33.23a3.67,3.67,0,0,0,.56-.08,13.56,13.56,0,0,0,.07-1.58V34.51a5.61,5.61,0,0,1,1-3.23h-1.65Z"/><path d="M87.75,13.08h62.8l8.6,24.45L149.3,41a38.51,38.51,0,0,0-4.57-8.05,19.51,19.51,0,0,0-5.17-4.53A18.41,18.41,0,0,0,133.08,26a59,59,0,0,0-8.27-.38h-9.36V45.94h4.79a9.17,9.17,0,0,0,4.27-.83A5,5,0,0,0,126.74,43a10.18,10.18,0,0,0,.68-4.4V34.51h9.8V68.8h-9.8V63.85a9.27,9.27,0,0,0-.38-3.13,5.47,5.47,0,0,0-1.36-2.14,4.87,4.87,0,0,0-2-1.16,16.66,16.66,0,0,0-4.06-.33h-4.19V73.2a10.35,10.35,0,0,0,.49,3.93,3.15,3.15,0,0,0,1.58,1.51,11.72,11.72,0,0,0,4.19.49h3.1V89.74H87.75V79.13h2.46q4.11,0,5.4-1.07c.85-.71,1.28-2.15,1.28-4.31V29.67a10.53,10.53,0,0,0-.49-4,3.15,3.15,0,0,0-1.64-1.48,13.5,13.5,0,0,0-4.55-.5H87.75Z"/><path class="cls-4" d="M201.52,96.73a42.78,42.78,0,0,1-22.3-6,43.71,43.71,0,0,1-15.89-16.66,47.2,47.2,0,0,1-5.87-23.13,46.3,46.3,0,0,1,5.74-22.79A42.28,42.28,0,0,1,179,11.92a43.44,43.44,0,0,1,22.19-5.83,46,46,0,0,1,16.77,3,5.69,5.69,0,0,1,4-1.65h7.72a5.66,5.66,0,0,1,5.47,4.18l7.45,27.54a5.67,5.67,0,0,1-3.88,6.92l-10.12,3a5.82,5.82,0,0,1-1.59.23,5.66,5.66,0,0,1-5-3.08c-3.81-7.39-6.63-10.82-8.33-12.39-3.06-2.79-6.21-4.15-9.6-4.15a12.18,12.18,0,0,0-6.8,2.06A14.59,14.59,0,0,0,192,38.06a26.13,26.13,0,0,0-2.16,11.12c0,6.72,1.66,12.28,5.09,17,3.06,4.21,6.74,6.17,11.6,6.17a17.1,17.1,0,0,0,9.24-2.81,37.78,37.78,0,0,0,11-10.68,5.67,5.67,0,0,1,3.75-2.37,5.58,5.58,0,0,1,.91-.07,5.67,5.67,0,0,1,3.4,1.13l8.43,6.32a5.66,5.66,0,0,1,1.19,7.86c-5.93,8.19-11.33,13.81-16.49,17.19A47.58,47.58,0,0,1,201.52,96.73Z"/><path d="M222,13.08h7.72l7.45,27.53-10.12,3q-5.07-9.84-9.53-14Q211.3,24,204.05,24a18,18,0,0,0-9.88,3,20.37,20.37,0,0,0-7.29,8.74,31.64,31.64,0,0,0-2.69,13.52q0,11.82,6.17,20.33T206.55,78a22.7,22.7,0,0,0,12.25-3.68A43,43,0,0,0,231.48,62.1l8.43,6.32q-8.21,11.31-15,15.77a41.81,41.81,0,0,1-23.39,6.87,37,37,0,0,1-19.39-5.2,37.9,37.9,0,0,1-13.84-14.53,41.5,41.5,0,0,1-5.16-20.39,40.52,40.52,0,0,1,5-20,36.59,36.59,0,0,1,13.71-14.1,40.42,40.42,0,0,1,38.31-.44Z"/><path class="cls-4" d="M320.89,96.73a43.45,43.45,0,0,1-12.77-1.82,40.91,40.91,0,0,1-6.25-2.55,5.68,5.68,0,0,1-5,3h-8.11a5.67,5.67,0,0,1-5.58-4.66L277.76,61A5.68,5.68,0,0,1,282,54.5l5.32-1.29s0,0-.05-.05A25.09,25.09,0,0,1,281.6,45a25.35,25.35,0,0,1-2.24-10.49,25.85,25.85,0,0,1,4.27-14.33A29.42,29.42,0,0,1,296,9.82a40,40,0,0,1,17.31-3.73A38.21,38.21,0,0,1,329,9.33a5.68,5.68,0,0,1,4.26-1.92H341a5.68,5.68,0,0,1,5.5,4.27l6.53,25.72a5.68,5.68,0,0,1-3.94,6.85l-3.77,1.07a27.63,27.63,0,0,1,4.28,3.86,25.91,25.91,0,0,1,6.54,17.46,27.09,27.09,0,0,1-9.77,21.09C339.5,93.71,330.93,96.73,320.89,96.73ZM301.81,61.27a30.53,30.53,0,0,0,6.43,7,20.45,20.45,0,0,0,13.14,4.83,13.36,13.36,0,0,0,4.73-.66,3.45,3.45,0,0,0,1.52-1,1.23,1.23,0,0,0,.27-.5c0-.13,0-.46-.88-1.12s-3.27-2-9.38-3.77l-12.72-3.74C304,62.06,303,61.71,301.81,61.27Zm6.31-30.7a4.4,4.4,0,0,0,.45.49c.27.26,1.66,1.43,6.46,2.79l12.82,3.77A24.06,24.06,0,0,0,322.77,33a18.39,18.39,0,0,0-10.49-3.32,7.42,7.42,0,0,0-4.06.86Z"/><path d="M341,13.08l6.53,25.71-10.18,2.92q-5.06-9.21-11.46-13.48A24.17,24.17,0,0,0,312.28,24a12.44,12.44,0,0,0-7.36,1.92c-1.8,1.29-2.69,2.72-2.69,4.29a6.8,6.8,0,0,0,2.45,5q2.38,2.31,8.81,4.12l14.59,4.3q12.14,3.51,17.3,9.35a20.22,20.22,0,0,1,5.12,13.69,21.53,21.53,0,0,1-7.84,16.83q-8.76,7.59-21.77,7.59a37.59,37.59,0,0,1-11.1-1.57,40.82,40.82,0,0,1-10.56-5.25l-2.39,5.5h-8.11L283.34,60l10.18-2.48A36,36,0,0,0,304.7,72.67a26.1,26.1,0,0,0,16.68,6.08,18.82,18.82,0,0,0,6.78-1,8.61,8.61,0,0,0,4-2.91A6.43,6.43,0,0,0,333.57,71a6.92,6.92,0,0,0-3.15-5.66q-3.21-2.37-11.21-4.67l-12.69-3.74a57.71,57.71,0,0,1-7.81-3.1A28.79,28.79,0,0,1,291.15,49a19.41,19.41,0,0,1-4.38-6.34A19.76,19.76,0,0,1,285,34.51a20.22,20.22,0,0,1,3.35-11.24A23.72,23.72,0,0,1,298.44,15a34.28,34.28,0,0,1,14.89-3.19,32,32,0,0,1,17.8,5.16l2.12-3.84Z"/><path class="cls-4" d="M373.57,95.41a5.66,5.66,0,0,1-5.66-5.67V79.13a5.66,5.66,0,0,1,5.66-5.67H377q0-.56,0-1.35v-41a15.54,15.54,0,0,0-4.48,4.43,78.91,78.91,0,0,0-4.21,7.92,5.67,5.67,0,0,1-5.07,3.14,5.54,5.54,0,0,1-1.91-.34l-10-3.57A5.66,5.66,0,0,1,348,35.5l9.36-26.87a5.67,5.67,0,0,1,5.35-3.81h7.18a5.67,5.67,0,0,1,4.76,2.59h34.95a5.67,5.67,0,0,1,4.76-2.59h7.23a5.69,5.69,0,0,1,5.36,3.8l9.41,26.87a5.68,5.68,0,0,1-3.46,7.22l-10.13,3.57a5.6,5.6,0,0,1-1.88.33,5.68,5.68,0,0,1-5.07-3.12,70.08,70.08,0,0,0-4.37-8,18.08,18.08,0,0,0-4.27-4.32V71.71c0,.69,0,1.26,0,1.72.78,0,1.89,0,3.46,0a5.67,5.67,0,0,1,5.67,5.67V89.74a5.67,5.67,0,0,1-5.67,5.67Z"/><path d="M362.69,10.49h7.18l.77,2.59h42.77l.93-2.59h7.23L431,37.37l-10.12,3.57A78.41,78.41,0,0,0,416,32.2a23.07,23.07,0,0,0-6.64-6.32,10.56,10.56,0,0,0-5.6-1.76,2.18,2.18,0,0,0-1.8.63,5.52,5.52,0,0,0-.49,2.89V71.71a24.36,24.36,0,0,0,.28,4.89,3.13,3.13,0,0,0,.93,1.57,3.64,3.64,0,0,0,1.8.77,54.35,54.35,0,0,0,6.14.19V89.74H373.57V79.13h2.25a14.37,14.37,0,0,0,4.76-.47A3.19,3.19,0,0,0,382.17,77a14.13,14.13,0,0,0,.55-4.92V27a4.17,4.17,0,0,0-.44-2.41,2.48,2.48,0,0,0-1.85-.5,12.34,12.34,0,0,0-6.31,2.15,21,21,0,0,0-6.2,6,92.52,92.52,0,0,0-4.63,8.63l-10-3.57Z"/><path class="cls-4" d="M435.45,95.41a5.67,5.67,0,0,1-5.67-5.67V79.13a5.67,5.67,0,0,1,5.67-5.67h1.91c.62,0,1.14,0,1.55,0,0-.4,0-.88,0-1.44V30.22c0-.32,0-.61,0-.87h-3.47a5.67,5.67,0,0,1-5.67-5.67V13.08a5.67,5.67,0,0,1,5.67-5.67h63.4a5.67,5.67,0,0,1,5.34,3.76l8.66,24.23a5.68,5.68,0,0,1-3.41,7.24l-9.85,3.57a5.68,5.68,0,0,1-7.16-3.12c-.41-1-.84-1.91-1.29-2.78v24.5A27.74,27.74,0,0,0,495.77,56a5.65,5.65,0,0,1,7.25-3.6l10,3.47a5.66,5.66,0,0,1,3.48,7.22l-10,28.5a5.67,5.67,0,0,1-5.35,3.8Zm39-23.6c.94,0,1.85,0,2.71-.09h-1.41a5.67,5.67,0,0,1-5.67-5.67V62.74A16.53,16.53,0,0,0,470,61c-.26,0-.59-.05-1-.07V71.81ZM469,38.75l1-.07c.05-.5.08-1.21.08-2.19V33.57a5.57,5.57,0,0,1,.62-2.57H469Z"/><path d="M435.45,13.08h63.4l8.66,24.23-9.85,3.57a32.9,32.9,0,0,0-5.85-9.56,16.3,16.3,0,0,0-7.41-4.81A33.77,33.77,0,0,0,475,25.33H463.37V44.46h3.81a17.37,17.37,0,0,0,5.8-.64,4.06,4.06,0,0,0,2.15-2,14.37,14.37,0,0,0,.65-5.35V33.57h9.69V66.05h-9.69V62.74a11.36,11.36,0,0,0-.79-4.92,4.21,4.21,0,0,0-2.15-2.1,20.48,20.48,0,0,0-6-.55h-3.43V72.8a12.07,12.07,0,0,0,.27,3.42,1.9,1.9,0,0,0,1.06.93,10.91,10.91,0,0,0,3.41.33h6.37a31,31,0,0,0,12-2.07,23,23,0,0,0,8.74-6.68,32.7,32.7,0,0,0,5.91-11l9.94,3.47-10,28.5H435.45V79.13h1.91a15.32,15.32,0,0,0,5.11-.55,3.3,3.3,0,0,0,1.85-1.92A21.9,21.9,0,0,0,444.6,72V30.22a13.28,13.28,0,0,0-.47-4.45,3.2,3.2,0,0,0-1.44-1.57,9.54,9.54,0,0,0-3.86-.52h-3.38Z"/><path class="cls-4" d="M515.73,95.41a5.67,5.67,0,0,1-5.67-5.67V79.13a5.67,5.67,0,0,1,5.67-5.67h1.9c.63,0,1.14,0,1.56,0,0-.4,0-.88,0-1.44V30.22c0-.32,0-.61,0-.87h-3.46a5.67,5.67,0,0,1-5.67-5.67V13.08a5.67,5.67,0,0,1,5.67-5.67h63.39a5.66,5.66,0,0,1,5.34,3.76l8.66,24.23a5.67,5.67,0,0,1-3.41,7.24l-9.85,3.57a5.66,5.66,0,0,1-7.15-3.12c-.42-1-.85-1.91-1.3-2.78v24.5A27.54,27.54,0,0,0,576,56a5.66,5.66,0,0,1,7.26-3.6l9.94,3.47a5.66,5.66,0,0,1,3.48,7.22l-10,28.5a5.69,5.69,0,0,1-5.36,3.8Zm39-23.6c.94,0,1.85,0,2.71-.09h-1.41a5.67,5.67,0,0,1-5.67-5.67V62.74a14.26,14.26,0,0,0-.09-1.79c-.26,0-.58-.05-1-.07V71.81Zm-5.44-33.06,1-.07c0-.5.07-1.21.07-2.19V33.57A5.57,5.57,0,0,1,551,31h-1.69Z"/><path d="M515.73,13.08h63.39l8.66,24.23-9.85,3.57a32.9,32.9,0,0,0-5.85-9.56,16.28,16.28,0,0,0-7.4-4.81,33.85,33.85,0,0,0-9.45-1.18H543.64V44.46h3.81a17.37,17.37,0,0,0,5.8-.64,4,4,0,0,0,2.15-2,14.37,14.37,0,0,0,.65-5.35V33.57h9.69V66.05h-9.69V62.74a11.36,11.36,0,0,0-.79-4.92,4.18,4.18,0,0,0-2.15-2.1,20.43,20.43,0,0,0-6-.55h-3.43V72.8a11.53,11.53,0,0,0,.28,3.42,1.87,1.87,0,0,0,1.06.93,10.83,10.83,0,0,0,3.4.33h6.37a30.89,30.89,0,0,0,12-2.07,23,23,0,0,0,8.74-6.68,32.7,32.7,0,0,0,5.91-11l9.94,3.47-10,28.5H515.73V79.13h1.9a15.43,15.43,0,0,0,5.12-.55,3.33,3.33,0,0,0,1.85-1.92,22.21,22.21,0,0,0,.27-4.67V30.22a13.28,13.28,0,0,0-.47-4.45A3.11,3.11,0,0,0,523,24.2a9.54,9.54,0,0,0-3.86-.52h-3.37Z"/><path class="cls-4" d="M596.27,95.41a5.67,5.67,0,0,1-5.67-5.67V79.13a5.67,5.67,0,0,1,5.67-5.67h3.47V30c0-.22,0-.42,0-.6h-3.46a5.67,5.67,0,0,1-5.67-5.67V13.08a5.67,5.67,0,0,1,5.67-5.67h37.06A5.67,5.67,0,0,1,639,13.08v10.6a5.67,5.67,0,0,1-5.67,5.67h-3.47V71.9a22.59,22.59,0,0,0,8-1.43,16.1,16.1,0,0,0,5.91-4.62,32,32,0,0,0,5.12-9.8,5.67,5.67,0,0,1,7.2-3.49l10,3.46a5.67,5.67,0,0,1,3.5,7.25l-10,28.36a5.67,5.67,0,0,1-5.34,3.78Z"/><path d="M596.27,13.08h37.06v10.6h-3.25a11.94,11.94,0,0,0-3.4.28,3.65,3.65,0,0,0-1.9,1.67,8.23,8.23,0,0,0-.59,3.6V73a12.29,12.29,0,0,0,.24,3.24,1.88,1.88,0,0,0,1,1,8.22,8.22,0,0,0,2.94.35q7.29,0,11.73-1.92a21.79,21.79,0,0,0,8-6.18,37.28,37.28,0,0,0,6.12-11.57l10,3.46-10,28.36h-58V79.13h3.62a7.42,7.42,0,0,0,3.36-.6,3.91,3.91,0,0,0,1.65-1.62,8.67,8.67,0,0,0,.51-3.55V30a11.08,11.08,0,0,0-.51-4,3.6,3.6,0,0,0-1.46-1.76,6.78,6.78,0,0,0-3.17-.55h-4Z"/><text class="cls-5" transform="translate(195.94 150)">POO<tspan class="cls-6" x="80.02" y="0">L</tspan><tspan x="101.36" y="0" xml:space="preserve"> REINFORCING</tspan></text></svg>